<?xml version="1.0" encoding="UTF-8"?>
<!DOCTYPE svg PUBLIC "-//W3C//DTD SVG 1.1//EN" "http://www.w3.org/Graphics/SVG/1.1/DTD/svg11.dtd">
<svg version="1.1" xmlns="http://www.w3.org/2000/svg" xmlns:xlink="http://www.w3.org/1999/xlink" x="0" y="0" width="580" height="827.5" viewBox="0, 0, 580, 827.5">
  <g id="Layer_1">
    <path d="M526.032,280.46 C531.052,278.452 547.107,284.472 547.107,284.472 L547.107,294.507 L46.423,342.67 L40.403,320.595 L526.032,280.46" fill="#AC8E5B"/>
    <path d="M526.032,280.46 C531.052,278.452 547.107,284.472 547.107,284.472 L547.107,294.507 L46.423,342.67 L40.403,320.595 L526.032,280.46 z" fill-opacity="0" stroke="#1A1919" stroke-width="5" stroke-linecap="round" stroke-linejoin="round"/>
    <path d="M51.44,325.612 C51.44,325.612 525.032,283.47 526.032,280.46 C527.037,277.45 521.018,54.7 521.018,54.7 C521.018,54.7 56.457,28.612 52.445,29.617 L51.44,325.612" fill="#AC8E5B"/>
    <path d="M51.44,325.612 C51.44,325.612 525.032,283.47 526.032,280.46 C527.037,277.45 521.018,54.7 521.018,54.7 C521.018,54.7 56.457,28.612 52.445,29.617 L51.44,325.612 z" fill-opacity="0" stroke="#1A1919" stroke-width="5" stroke-linecap="round" stroke-linejoin="round"/>
    <path d="M68.498,308.555 L514.997,271.43 L510.985,64.735 C510.985,64.735 71.508,45.67 68.498,46.675 L68.498,308.555" fill="#0D5D35"/>
    <path d="M372.83,248.692 C372.83,248.692 366.165,245.357 363.665,248.692 C361.165,252.025 359.495,287.857 364.495,288.692 C369.495,289.525 374.495,287.025 374.495,287.025 L372.83,248.692" fill="#1A1919"/>
    <path d="M372.83,248.692 C372.83,248.692 366.165,245.357 363.665,248.692 C361.165,252.025 359.495,287.857 364.495,288.692 C369.495,289.525 374.495,287.025 374.495,287.025 L372.83,248.692 z" fill-opacity="0" stroke="#1A1919" stroke-width="5" stroke-linecap="round" stroke-linejoin="round"/>
    <path d="M375.765,245.625 C375.765,245.625 379.1,284.792 377.432,287.292 C375.765,289.792 441.6,283.125 442.432,280.625 C443.265,278.125 439.1,243.125 439.1,243.125 L375.765,245.625" fill="#AC8E5B"/>
    <path d="M375.765,245.625 C375.765,245.625 379.1,284.792 377.432,287.292 C375.765,289.792 441.6,283.125 442.432,280.625 C443.265,278.125 439.1,243.125 439.1,243.125 L375.765,245.625 z" fill-opacity="0" stroke="#1A1919" stroke-width="5" stroke-linecap="round" stroke-linejoin="round"/>
    <path d="M380.383,246.007 C380.383,246.007 369.1,244.792 369.1,247.292 C369.1,249.792 370.765,288.125 370.765,288.125 L380.853,288.93 L380.383,246.007" fill="#AC8E5B"/>
    <path d="M380.383,246.007 C380.383,246.007 369.1,244.792 369.1,247.292 C369.1,249.792 370.765,288.125 370.765,288.125 L380.853,288.93 L380.383,246.007 z" fill-opacity="0" stroke="#1A1919" stroke-width="5" stroke-linecap="round" stroke-linejoin="round"/>
    <path d="M415.765,243.958 C415.765,243.958 425.765,264.793 419.1,284.793 L410.765,286.458 C412.432,278.958 414.932,256.458 407.432,244.793 L415.765,243.958" fill="#4D4E4C"/>
    <g>
      <path d="M415.765,243.958 C415.765,243.958 425.765,264.793 419.1,284.793 L410.765,286.458 C412.432,278.958 414.932,256.458 407.432,244.793 L415.765,243.958 z" fill-opacity="0" stroke="#1A1919" stroke-width="5" stroke-linecap="round" stroke-linejoin="round"/>
      <path d="M513.66,696.863 L440.325,670.198" fill-opacity="0" stroke="#1A1919" stroke-width="17.5" stroke-linecap="round" stroke-linejoin="round"/>
      <path d="M513.66,696.863 L440.325,670.198" fill-opacity="0" stroke="#CBCCCB" stroke-width="8" stroke-linecap="round" stroke-linejoin="round"/>
      <path d="M517.825,731.03 C517.825,731.03 518.475,595.418 518.475,593.543" fill-opacity="0" stroke="#1A1919" stroke-width="17.5" stroke-linecap="round" stroke-linejoin="round"/>
    </g>
    <path d="M517.825,731.03 C517.825,731.03 518.475,595.418 518.475,593.543" fill-opacity="0" stroke="#CBCCCB" stroke-width="8" stroke-linecap="round" stroke-linejoin="round"/>
    <path d="M511.438,727.025 L511.122,740.787 C512.542,742.175 514.715,742.832 516.922,742.997 C520.038,743.235 523.228,742.49 524.468,741.435 L524.725,726.802" fill="#C5AC83"/>
    <path d="M511.438,727.025 L511.122,740.787 C512.542,742.175 514.715,742.832 516.922,742.997 C520.038,743.235 523.228,742.49 524.468,741.435 L524.725,726.802" fill-opacity="0" stroke="#1A1919" stroke-width="5" stroke-linecap="round" stroke-linejoin="round"/>
    <path d="M416.815,693.068 C422.623,701.698 418.46,711.788 409.153,715.113 C399.845,718.435 363.993,707.943 353.038,692.545 C342.083,677.15 361.36,672.365 385.903,679.97 C410.445,687.578 416.815,693.068 416.815,693.068" fill="#FFFFFE"/>
    <path d="M320.158,776.4 L225.808,728.538 C225.808,728.538 220.593,719.915 228.67,717.838 C237.098,715.668 357.768,677.333 357.768,677.333" fill-opacity="0" stroke="#1A1919" stroke-width="17.5" stroke-linecap="round" stroke-linejoin="round"/>
    <path d="M320.158,776.4 L225.808,728.538 C225.808,728.538 220.593,719.915 228.67,717.838 C237.098,715.668 357.768,677.333 357.768,677.333" fill-opacity="0" stroke="#CBCCCB" stroke-width="8" stroke-linecap="round" stroke-linejoin="round"/>
    <path d="M368.875,676.56 C353.61,675.422 344.823,681 353.038,692.545 C363.992,707.942 399.845,718.435 409.152,715.112 C413.948,713.397 417.375,709.89 418.783,705.712 C418.783,705.712 419.1,704.167 411.6,706.667 C404.1,709.167 375.35,702.292 372.225,699.792 C369.1,697.292 365.35,689.167 365.35,689.167 L372.85,677.917 L370.35,676.667" fill="#7290BD"/>
    <path d="M416.815,693.068 C422.623,701.698 418.46,711.788 409.153,715.113 C399.845,718.435 363.993,707.943 353.038,692.545 C342.083,677.15 361.36,672.365 385.903,679.97 C410.445,687.578 416.815,693.068 416.815,693.068 z" fill-opacity="0" stroke="#1A1919" stroke-width="5" stroke-linecap="round" stroke-linejoin="round"/>
    <path d="M416.413,674.323 L416.815,693.068 C401.35,700.898 389.958,694.263 383.6,689.398 C383.6,689.398 386.395,673.708 386.315,669.96 C386.315,669.96 412.56,669.405 416.413,674.323" fill="#FFFFFE"/>
    <path d="M416.413,674.323 L416.815,693.068 C401.35,700.898 389.958,694.263 383.6,689.398 C383.6,689.398 386.395,673.708 386.315,669.96 C386.315,669.96 412.56,669.405 416.413,674.323 z" fill-opacity="0" stroke="#1A1919" stroke-width="5" stroke-linecap="round" stroke-linejoin="round"/>
    <path d="M363.03,709.758 C363.307,709.95 363.6,710.403 363.88,711.058 C366.335,716.843 367.472,738.478 343.89,737.918 C317.64,737.293 287.64,718.543 285.765,701.668 C283.89,684.793 318.265,689.793 327.015,692.918 C335.765,696.043 363.03,709.758 363.03,709.758" fill="#FFFFFE"/>
    <path d="M363.03,709.758 C363.307,709.95 363.6,710.403 363.88,711.058 C366.335,716.843 367.472,738.478 343.89,737.918 C317.64,737.293 287.64,718.543 285.765,701.668 C283.89,684.793 318.265,689.793 327.015,692.918 C335.765,696.043 363.03,709.758 363.03,709.758 z" fill-opacity="0" stroke="#1A1919" stroke-width="5" stroke-linecap="round" stroke-linejoin="round"/>
    <path d="M363.225,726.333 C361.008,732.615 355.465,738.205 343.425,737.917 C317.385,737.292 287.625,718.542 285.765,701.667 C284.578,690.898 298.035,689.037 310.185,689.915 C310.975,694.167 300.35,702.917 295.975,705.417 C308.475,722.292 345.975,739.167 362.85,723.542 L363.225,726.333" fill="#7290BD"/>
    <path d="M363.03,709.758 C363.307,709.95 363.6,710.403 363.88,711.058 C366.335,716.843 367.472,738.478 343.89,737.918 C317.64,737.293 287.64,718.543 285.765,701.668 C283.89,684.793 318.265,689.793 327.015,692.918 C335.765,696.043 363.03,709.758 363.03,709.758 z" fill-opacity="0" stroke="#1A1919" stroke-width="5" stroke-linecap="round" stroke-linejoin="round"/>
    <path d="M382.49,637.112 C393.708,632.65 395.413,610.14 389.725,601.43 C389.725,601.43 355.915,593.557 347.24,603.622 C338.562,613.688 325.9,675.66 323.605,703.175 C329.283,710.01 344.388,724.272 363.03,709.757 C363.03,709.757 370.078,649.08 370.673,644.7 L382.49,637.112" fill="#F7CEB2"/>
    <path d="M382.49,637.112 C393.708,632.65 395.413,610.14 389.725,601.43 C389.725,601.43 355.915,593.557 347.24,603.622 C338.562,613.688 325.9,675.66 323.605,703.175 C329.283,710.01 344.388,724.272 363.03,709.757 C363.03,709.757 370.078,649.08 370.673,644.7 L382.49,637.112 z" fill-opacity="0" stroke="#1A1919" stroke-width="5" stroke-linecap="round" stroke-linejoin="round"/>
    <path d="M367.247,673.548 C365.212,690.97 363.03,709.758 363.03,709.758 C344.387,724.273 329.283,710.01 323.605,703.175 C324.48,692.71 326.852,677.258 329.935,661.575 C337.85,666.668 342.902,676.053 367.247,673.548" fill="#FFFFFE"/>
    <path d="M367.247,673.548 C365.212,690.97 363.03,709.758 363.03,709.758 C344.387,724.273 329.283,710.01 323.605,703.175 C324.48,692.71 326.852,677.258 329.935,661.575 C337.85,666.668 342.902,676.053 367.247,673.548 z" fill-opacity="0" stroke="#1A1919" stroke-width="5" stroke-linecap="round" stroke-linejoin="round"/>
    <path d="M359.515,648.545 L389.515,636.46 L454.515,613.96 L554.935,640.627 L554.935,652.295 L472.432,685.21 C472.432,685.21 367.85,642.712 359.515,648.545" fill="#AC8E5B"/>
    <path d="M359.515,648.545 L389.515,636.46 L454.515,613.96 L554.935,640.627 L554.935,652.295 L472.432,685.21 C472.432,685.21 367.85,642.712 359.515,648.545 z" fill-opacity="0" stroke="#1A1919" stroke-width="5.148" stroke-linecap="round" stroke-linejoin="round"/>
    <path d="M372.658,631.657 L395.822,637.112 C407.04,632.65 408.747,610.14 403.06,601.43 C403.06,601.43 369.247,593.557 360.572,603.622 C357.77,606.875 354.552,615.542 351.405,626.712" fill="#F7CEB2"/>
    <path d="M372.658,631.657 L395.822,637.112 C407.04,632.65 408.747,610.14 403.06,601.43 C403.06,601.43 369.247,593.557 360.572,603.622 C357.77,606.875 354.552,615.542 351.405,626.712" fill-opacity="0" stroke="#1A1919" stroke-width="5" stroke-linecap="round" stroke-linejoin="round"/>
    <path d="M514.1,606.667 C518.492,616.232 516.6,632.292 510.022,638.96 C502.595,646.492 474.94,653.778 460.35,652.917 C436.677,651.525 401.6,641.042 395.975,637.292 C395.975,637.292 390.06,617.658 395.668,607.008 C395.668,607.008 403.515,600.843 409.68,600.28 C415.848,599.72 427.62,602.523 427.62,602.523" fill="#5670A8"/>
    <path d="M514.1,606.667 C518.492,616.232 516.6,632.292 510.022,638.96 C502.595,646.492 474.94,653.778 460.35,652.917 C436.677,651.525 401.6,641.042 395.975,637.292 C395.975,637.292 390.06,617.658 395.668,607.008 C395.668,607.008 403.515,600.843 409.68,600.28 C415.848,599.72 427.62,602.523 427.62,602.523" fill-opacity="0" stroke="#1A1919" stroke-width="5" stroke-linecap="round" stroke-linejoin="round"/>
    <path d="M339.607,609.205 C339.607,609.205 339.585,609.61 339.547,610.328 C339.26,615.755 338.122,638.98 339.607,639.475 C341.29,640.038 527.225,572.918 527.225,572.918 L529.695,543.343 L339.607,609.205" fill="#9E9F9E"/>
    <path d="M339.607,609.205 C339.607,609.205 339.585,609.61 339.547,610.328 C339.26,615.755 338.122,638.98 339.607,639.475 C341.29,640.038 527.225,572.918 527.225,572.918 L529.695,543.343 L339.607,609.205 z" fill-opacity="0" stroke="#1A1919" stroke-width="5" stroke-linecap="round" stroke-linejoin="round"/>
    <path d="M225.813,566.043 L225.253,591.825 L334.003,639.475 C337.928,640.595 339.608,639.475 339.608,639.475 C340.168,636.11 339.608,609.205 339.608,609.205 L225.813,566.043" fill="#CBCCCB"/>
    <g>
      <path d="M225.813,566.043 L225.253,591.825 L334.003,639.475 C337.928,640.595 339.608,639.475 339.608,639.475 C340.168,636.11 339.608,609.205 339.608,609.205 L225.813,566.043 z" fill-opacity="0" stroke="#1A1919" stroke-width="5" stroke-linecap="round" stroke-linejoin="round"/>
      <path d="M228.475,558.543 C228.475,561.043 219.517,763.96 219.517,763.96" fill-opacity="0" stroke="#1A1919" stroke-width="17.5" stroke-linecap="round" stroke-linejoin="round"/>
      <path d="M228.475,558.543 C228.475,561.043 219.517,763.96 219.517,763.96" fill-opacity="0" stroke="#CBCCCB" stroke-width="8" stroke-linecap="round" stroke-linejoin="round"/>
      <path d="M222.85,563.543 L314.1,605.525 C319.725,608.65 323.475,616.118 323.475,622.4 C323.475,633.65 322.435,808.96 322.435,808.96" fill-opacity="0" stroke="#1A1919" stroke-width="17.5" stroke-linecap="round" stroke-linejoin="round"/>
      <path d="M222.85,563.543 L314.1,605.525 C319.725,608.65 323.475,616.118 323.475,622.4 C323.475,633.65 322.435,808.96 322.435,808.96" fill-opacity="0" stroke="#CBCCCB" stroke-width="8" stroke-linecap="round" stroke-linejoin="round"/>
    </g>
    <path d="M211.6,539.792 L211.6,551.667 C210.975,554.167 212.497,556.652 216.423,557.597 L325.975,606.667 C329.725,609.167 337.85,610.417 342.85,608.542 C346.26,607.263 537.85,538.542 537.85,538.542 L537.78,524.36 L211.6,539.792" fill="#AC8E5B"/>
    <path d="M211.6,539.792 L211.6,551.667 C210.975,554.167 212.497,556.652 216.423,557.597 L325.975,606.667 C329.725,609.167 337.85,610.417 342.85,608.542 C346.26,607.263 537.85,538.542 537.85,538.542 L537.78,524.36 L211.6,539.792 z" fill-opacity="0" stroke="#1A1919" stroke-width="5" stroke-linecap="round" stroke-linejoin="round"/>
    <g>
      <path d="M435.975,342.917 C433.475,325.417 443.475,301.667 483.475,311.667 C495.975,311.042 601.6,360.417 546.6,430.417 L543.475,435.417 C534.725,454.167 501.6,460.417 485.975,455.417 L447.85,434.167 L435.975,342.917" fill="#46321D"/>
      <path d="M435.975,342.917 C433.475,325.417 443.475,301.667 483.475,311.667 C495.975,311.042 601.6,360.417 546.6,430.417 L543.475,435.417 C534.725,454.167 501.6,460.417 485.975,455.417 L447.85,434.167 L435.975,342.917 z" fill-opacity="0" stroke="#1A1919" stroke-width="5" stroke-linecap="round" stroke-linejoin="round"/>
    </g>
    <path d="M535.35,528.75 C535.35,528.75 361.105,588.26 345.35,594.168 C340.35,596.043 338.475,598.543 327.85,594.793 L219.1,545.418 C209.725,542.293 209.725,537.918 217.85,535.418 L400.35,471.875 C407.85,470.625 405.975,469.375 416.6,473.125 C429.295,477.605 528.475,516.875 528.475,516.875 C537.85,520 542.225,526.25 535.35,528.75" fill="#AC8E5B"/>
    <path d="M535.35,528.75 C535.35,528.75 361.105,588.26 345.35,594.168 C340.35,596.043 338.475,598.543 327.85,594.793 L219.1,545.418 C209.725,542.293 209.725,537.918 217.85,535.418 L400.35,471.875 C407.85,470.625 405.975,469.375 416.6,473.125 C429.295,477.605 528.475,516.875 528.475,516.875 C537.85,520 542.225,526.25 535.35,528.75 z" fill-opacity="0" stroke="#1A1919" stroke-width="5" stroke-linecap="round" stroke-linejoin="round"/>
    <path d="M174.932,706.043 C175.35,708.96 172.85,714.378 170.765,716.46 C168.682,718.543 135.35,718.543 107.433,711.043 C79.515,703.543 70.35,702.71 69.515,700.21 C68.683,697.71 70.765,687.71 70.765,687.71 L174.932,706.043" fill="#FFFFFE"/>
    <path d="M174.932,706.043 C175.35,708.96 172.85,714.378 170.765,716.46 C168.682,718.543 135.35,718.543 107.433,711.043 C79.515,703.543 70.35,702.71 69.515,700.21 C68.683,697.71 70.765,687.71 70.765,687.71 L174.932,706.043 z" fill-opacity="0" stroke="#1A1919" stroke-width="5" stroke-linecap="round" stroke-linejoin="round"/>
    <path d="M120.35,666.042 C130.765,668.542 168.265,684.795 172.015,692.71 C175.765,700.625 175.765,705.21 174.515,707.292 C164.515,711.46 127.433,708.542 112.433,704.375 C100.677,701.11 72.85,694.375 71.6,691.875 C70.35,689.375 65.35,665.625 68.265,662.292 C71.185,658.96 120.35,666.042 120.35,666.042" fill="#FFFFFE"/>
    <path d="M120.35,666.042 C130.765,668.542 168.265,684.795 172.015,692.71 C175.765,700.625 175.765,705.21 174.515,707.292 C164.515,711.46 127.433,708.542 112.433,704.375 C100.677,701.11 72.85,694.375 71.6,691.875 C70.35,689.375 65.35,665.625 68.265,662.292 C71.185,658.96 120.35,666.042 120.35,666.042 z" fill-opacity="0" stroke="#1A1919" stroke-width="5" stroke-linecap="round" stroke-linejoin="round"/>
    <path d="M137.135,708.335 C152.232,709.74 168.415,709.833 174.515,707.293 C175.765,705.21 175.765,700.625 172.015,692.71 C170.745,690.028 165.598,686.388 158.943,682.648 C156.6,683.543 134.753,690.628 137.135,708.335" fill="#DC3E38"/>
    <path d="M137.135,708.335 C152.233,709.74 168.415,709.832 174.515,707.292 C175.765,705.21 175.765,700.625 172.015,692.71 C170.745,690.027 165.598,686.387 158.943,682.647 C156.6,683.542 134.753,690.627 137.135,708.335 z M143.683,691.875 C142.433,691.875 101.6,678.127 98.265,675.627" fill-opacity="0" stroke="#1A1919" stroke-width="5" stroke-linecap="round" stroke-linejoin="round"/>
    <path d="M154.725,311.25 L150.975,345.832 C155.765,360.625 185.05,360.527 210.35,351.04 C217.015,348.54 237.723,336.397 242.015,333.54 L220.765,317.707 C217.447,317.045 193.34,316.552 175.35,319.792 C177.225,314.792 167.225,276.042 167.225,276.042 L152.85,281.042 L154.725,311.25" fill="#F7CEB2"/>
    <path d="M154.725,311.25 L150.975,345.832 C155.765,360.625 185.05,360.527 210.35,351.04 C217.015,348.54 237.723,336.397 242.015,333.54 L220.765,317.707 C217.447,317.045 193.34,316.552 175.35,319.792 C177.225,314.792 167.225,276.042 167.225,276.042 L152.85,281.042 L154.725,311.25" fill-opacity="0" stroke="#1A1919" stroke-width="5" stroke-linecap="round" stroke-linejoin="round"/>
    <path d="M122.85,227.71 C125.765,220.625 132.015,215.628 138.682,218.96 C138.682,218.96 122.85,203.542 104.515,196.042 L96.183,206.042 L120.765,218.96 L122.433,228.96" fill="#FFFFFE"/>
    <path d="M122.85,227.71 C125.765,220.625 132.015,215.628 138.682,218.96 C138.682,218.96 122.85,203.542 104.515,196.042 L96.183,206.042 L120.765,218.96 L122.433,228.96" fill-opacity="0" stroke="#1A1919" stroke-width="5" stroke-linecap="round" stroke-linejoin="round"/>
    <path d="M138.682,218.96 L142.015,228.96 L130.35,220.625 C129.515,218.96 134.1,214.792 138.682,218.96" fill="#FFFFFE"/>
    <path d="M138.682,218.96 L142.015,228.96 L130.35,220.625 C129.515,218.96 134.1,214.792 138.682,218.96 z" fill-opacity="0" stroke="#1A1919" stroke-width="5" stroke-linecap="round" stroke-linejoin="round"/>
    <path d="M62.433,172.71 L58.683,193.543 L106.183,209.375 C106.183,209.375 111.6,183.128 112.85,178.96 C114.1,174.793 62.433,172.71 62.433,172.71" fill="#F7CEB2"/>
    <path d="M62.433,172.71 L58.683,193.543 L106.183,209.375 C106.183,209.375 111.6,183.128 112.85,178.96 C114.1,174.793 62.433,172.71 62.433,172.71 z" fill-opacity="0" stroke="#1A1919" stroke-width="5" stroke-linecap="round" stroke-linejoin="round"/>
    <path d="M234.988,229.137 L238.81,198.31 C236.77,195.25 230.91,194.997 228.107,197.035 C227.6,198.055 219.955,226.08 220.212,227.61" fill="#FFFFFE"/>
    <path d="M234.988,229.137 L238.81,198.31 C236.77,195.25 230.91,194.997 228.107,197.035 C227.6,198.055 219.955,226.08 220.212,227.61" fill-opacity="0" stroke="#1A1919" stroke-width="5" stroke-linecap="round" stroke-linejoin="round"/>
    <path d="M178.265,319.375 C177.432,316.458 162.015,308.958 154.1,305.208 C146.182,301.458 177.015,270.622 178.265,271.04 C179.515,271.458 205.765,253.54 256.182,295.625 L178.265,319.375" fill="#FFFFFE"/>
    <path d="M178.265,319.375 C177.432,316.458 162.015,308.958 154.1,305.208 C146.182,301.458 177.015,270.622 178.265,271.04 C179.515,271.458 205.765,253.54 256.182,295.625 L178.265,319.375 z" fill-opacity="0" stroke="#1A1919" stroke-width="5" stroke-linecap="round" stroke-linejoin="round"/>
    <path d="M19.1,702.292 C19.1,702.292 18.685,710.625 19.515,713.125 C20.35,715.625 86.185,734.375 112.015,736.875 C117.85,737.292 119.695,737.26 125.765,736.042 C127.85,735.625 130.35,731.875 128.682,723.125 L19.1,702.292" fill="#FFFFFE"/>
    <path d="M19.1,702.292 C19.1,702.292 18.685,710.625 19.515,713.125 C20.35,715.625 86.185,734.375 112.015,736.875 C117.85,737.292 119.695,737.26 125.765,736.042 C127.85,735.625 130.35,731.875 128.682,723.125 L19.1,702.292 z" fill-opacity="0" stroke="#1A1919" stroke-width="5" stroke-linecap="round" stroke-linejoin="round"/>
    <path d="M22.433,681.042 C19.933,682.71 17.435,691.042 19.515,703.542 C24.933,707.71 68.855,723.04 119.1,730.21 C124.933,731.042 127.015,728.54 128.682,726.875 C130.35,722.71 125.765,692.292 90.35,681.875 C54.933,671.458 22.433,681.042 22.433,681.042" fill="#FFFFFE"/>
    <path d="M22.433,681.042 C19.933,682.71 17.435,691.042 19.515,703.542 C24.933,707.71 68.855,723.04 119.1,730.21 C124.933,731.042 127.015,728.54 128.682,726.875 C130.35,722.71 125.765,692.292 90.35,681.875 C54.933,671.458 22.433,681.042 22.433,681.042 z" fill-opacity="0" stroke="#1A1919" stroke-width="5" stroke-linecap="round" stroke-linejoin="round"/>
    <path d="M55.325,716.565 C35.86,711.01 22.362,705.733 19.515,703.543 C17.435,691.043 19.932,682.71 22.432,681.043 C22.432,681.043 24.557,680.415 28.317,679.655 C34.515,682.71 53.632,705.838 55.325,716.565" fill="#DC3E38"/>
    <path d="M55.325,716.565 C35.86,711.01 22.362,705.733 19.515,703.543 C17.435,691.043 19.932,682.71 22.432,681.043 C22.432,681.043 24.557,680.415 28.317,679.655 C34.515,682.71 53.632,705.838 55.325,716.565 z" fill-opacity="0" stroke="#1A1919" stroke-width="5" stroke-linecap="round" stroke-linejoin="round"/>
    <path d="M118.665,699.815 C128.342,711.575 129.717,724.287 128.682,726.875 C127.015,728.54 124.932,731.042 119.1,730.21 C110.222,728.942 101.545,727.422 93.242,725.752 C91.6,716.46 108.645,695.252 118.665,699.815" fill="#DC3E38"/>
    <path d="M118.665,699.815 C128.342,711.575 129.717,724.287 128.682,726.875 C127.015,728.54 124.932,731.042 119.1,730.21 C110.222,728.942 101.545,727.422 93.242,725.752 C91.6,716.46 108.645,695.252 118.665,699.815 z" fill-opacity="0" stroke="#1A1919" stroke-width="5" stroke-linecap="round" stroke-linejoin="round"/>
    <path d="M23.275,403.047 C22.03,412.992 22.03,425.425 31.355,443.452 C34.933,461.457 29.93,528.125 26.6,554.792 C22.433,574.792 18.265,668.957 19.1,678.125 C23.265,682.292 71.61,687.34 80.765,685.625 C94.1,683.125 95.765,682.292 95.765,682.292 C95.765,682.292 94.933,672.29 94.933,668.125 C100.765,670.628 115.765,674.795 126.6,668.128 C127.433,654.795 128.265,588.957 130.765,554.792 C132.43,532.292 134.505,451.847 142.433,443.125 C150.765,433.957 157.433,414.79 157.433,408.957 C157.433,403.125 59.933,382.292 49.933,387.292 C39.933,392.292 23.275,403.047 23.275,403.047" fill="#5E9FCA"/>
    <path d="M23.275,403.047 C22.03,412.992 22.03,425.425 31.355,443.452 C34.933,461.457 29.93,528.125 26.6,554.792 C22.433,574.792 18.265,668.957 19.1,678.125 C23.265,682.292 71.61,687.34 80.765,685.625 C94.1,683.125 95.765,682.292 95.765,682.292 C95.765,682.292 94.933,672.29 94.933,668.125 C100.765,670.628 115.765,674.795 126.6,668.128 C127.433,654.795 128.265,588.957 130.765,554.792 C132.43,532.292 134.505,451.847 142.433,443.125 C150.765,433.957 157.433,414.79 157.433,408.957 C157.433,403.125 59.933,382.292 49.933,387.292 C39.933,392.292 23.275,403.047 23.275,403.047 z" fill-opacity="0" stroke="#1A1919" stroke-width="5" stroke-linecap="round" stroke-linejoin="round"/>
    <path d="M47.015,199.793 C40.35,205.21 32.015,211.043 25.765,226.043 C19.515,241.043 20.765,262.293 22.432,281.46 C24.1,300.625 24.515,323.128 22.432,342.71 C20.35,362.293 14.515,405.21 14.515,406.875 C26.182,411.875 63.052,414.853 63.052,414.853 L68.025,390.61 C68.025,390.61 70.765,413.125 71.6,414.375 C72.433,415.625 132.542,417.758 150.35,415.21 C153.265,414.793 159.515,412.71 159.515,412.71 C160.765,411.46 167.85,332.293 163.265,304.375 L162.015,296.043 L174.1,292.293 C173.265,289.793 159.515,230.625 137.85,221.043 C137.85,221.043 54.515,193.125 47.015,199.793" fill="#D8232A"/>
    <path d="M47.015,199.793 C40.35,205.21 32.015,211.043 25.765,226.043 C19.515,241.043 20.765,262.293 22.432,281.46 C24.1,300.625 24.515,323.128 22.432,342.71 C20.35,362.293 14.515,405.21 14.515,406.875 C26.182,411.875 63.052,414.853 63.052,414.853 L68.025,390.61 C68.025,390.61 70.765,413.125 71.6,414.375 C72.433,415.625 132.542,417.758 150.35,415.21 C153.265,414.793 159.515,412.71 159.515,412.71 C160.765,411.46 167.85,332.293 163.265,304.375 L162.015,296.043 L174.1,292.293 C173.265,289.793 159.515,230.625 137.85,221.043 C137.85,221.043 54.515,193.125 47.015,199.793 z" fill-opacity="0" stroke="#1A1919" stroke-width="5" stroke-linecap="round" stroke-linejoin="round"/>
    <path d="M127.85,22.292 C122.225,11.042 112.225,4.167 95.35,7.292 C78.475,10.417 33.475,34.167 20.975,63.542 C15.35,77.292 15.35,94.167 17.225,117.917 C17.225,117.917 38.475,134.167 40.975,133.542 C43.475,132.917 156.6,84.792 156.6,84.792 C160.975,72.292 172.85,42.292 160.35,27.917 C147.85,13.542 135.35,17.292 127.85,22.292" fill="#46321D"/>
    <path d="M127.85,22.292 C122.225,11.042 112.225,4.167 95.35,7.292 C78.475,10.417 33.475,34.167 20.975,63.542 C15.35,77.292 15.35,94.167 17.225,117.917 C17.225,117.917 38.475,134.167 40.975,133.542 C43.475,132.917 156.6,84.792 156.6,84.792 C160.975,72.292 172.85,42.292 160.35,27.917 C147.85,13.542 135.35,17.292 127.85,22.292 z M29.725,67.917 C27.225,74.167 20.975,87.292 31.6,119.167 M60.975,69.792 C61.6,67.917 69.1,51.042 70.975,48.542" fill-opacity="0" stroke="#1A1919" stroke-width="5" stroke-linecap="round" stroke-linejoin="round"/>
    <path d="M158.475,103.542 C160.975,99.167 167.225,96.042 170.975,98.542 C174.725,101.042 178.475,122.917 162.85,135.417" fill="#F7CEB2"/>
    <path d="M158.475,103.542 C160.975,99.167 167.225,96.042 170.975,98.542 C174.725,101.042 178.475,122.917 162.85,135.417" fill-opacity="0" stroke="#1A1919" stroke-width="5" stroke-linecap="round" stroke-linejoin="round"/>
    <path d="M136.6,44.167 C142.225,49.167 146.6,54.167 149.1,59.792 C151.6,65.417 170.975,117.292 157.225,154.792 C153.375,165.29 120.735,192.1 92.85,187.292 C74.725,184.167 49.1,167.917 42.225,161.667 C41.338,159.542 37.225,155.417 35.975,152.917 C32.225,154.167 17.85,150.417 13.475,137.292 C9.1,124.167 9.1,102.917 27.85,115.417 L33.475,121.042 C34.1,119.167 34.1,98.542 34.1,96.667 C39.1,92.917 57.85,74.167 60.975,69.792 C60.35,72.292 55.975,84.167 58.475,84.167 C60.975,84.167 90.975,62.917 104.1,49.792 C103.475,54.167 84.1,87.292 85.975,86.667 C87.85,86.042 125.35,48.542 130.975,41.042 L136.6,44.167" fill="#F7CEB2"/>
    <path d="M136.6,44.167 C142.225,49.167 146.6,54.167 149.1,59.792 C151.6,65.417 170.975,117.292 157.225,154.792 C153.375,165.29 120.735,192.1 92.85,187.292 C74.725,184.167 49.1,167.917 42.225,161.667 C41.338,159.542 37.225,155.417 35.975,152.917 C32.225,154.167 17.85,150.417 13.475,137.292 C9.1,124.167 9.1,102.917 27.85,115.417 L33.475,121.042 C34.1,119.167 34.1,98.542 34.1,96.667 C39.1,92.917 57.85,74.167 60.975,69.792 C60.35,72.292 55.975,84.167 58.475,84.167 C60.975,84.167 90.975,62.917 104.1,49.792 C103.475,54.167 84.1,87.292 85.975,86.667 C87.85,86.042 125.35,48.542 130.975,41.042 L136.6,44.167 z" fill-opacity="0" stroke="#1A1919" stroke-width="5" stroke-linecap="round" stroke-linejoin="round"/>
    <path d="M157.305,117.378 C157.877,122.902 152.72,127.967 145.785,128.685 C138.852,129.402 132.765,125.505 132.195,119.978 C131.622,114.452 136.78,109.387 143.712,108.67 C150.647,107.952 156.73,111.853 157.305,117.378" fill="#F2B8AA"/>
    <path d="M76.043,129.628 C76.55,135.163 70.655,140.228 62.87,140.945 C55.088,141.66 48.368,137.755 47.86,132.223 C47.347,126.69 53.245,121.623 61.028,120.908 C68.81,120.19 75.535,124.098 76.043,129.628" fill="#F2B8AA"/>
    <path d="M20.35,124.168 C24.725,124.168 27.85,126.668 27.85,126.668 C27.85,126.668 23.475,129.793 24.725,131.668 C25.975,133.543 28.475,133.543 30.35,134.793 M116.58,96.713 C121.425,103.09 126.6,126.043 112.85,129.793 C99.1,133.543 97.85,124.793 97.85,119.793 M79.1,143.543 C82.85,151.668 99.1,157.918 117.85,154.793" fill-opacity="0" stroke="#1A1919" stroke-width="5" stroke-linecap="round" stroke-linejoin="round"/>
    <path d="M80.975,97.917 C80.975,102.232 79.295,105.73 77.225,105.73 C75.153,105.73 73.475,102.232 73.475,97.917 C73.475,93.603 75.153,90.105 77.225,90.105 C79.295,90.105 80.975,93.603 80.975,97.917" fill="#1A1919"/>
    <path d="M137.85,91.042 C137.85,95.357 136.17,98.855 134.1,98.855 C132.027,98.855 130.35,95.357 130.35,91.042 C130.35,86.728 132.027,83.23 134.1,83.23 C136.17,83.23 137.85,86.728 137.85,91.042" fill="#1A1919"/>
    <path d="M120.152,98.5 C124.997,96.457 143.35,93.397 146.423,93.397 C148.462,93.397 150.76,94.93 150.76,98.5 C150.76,101.05 151.522,104.11 150.503,107.17 C150.212,108.042 148.605,110.393 147.697,110.743 C140.915,113.357 130.865,115.842 124.23,115.842 C122.957,115.332 120.915,99.52 120.152,98.5" fill="#FFFFFE"/>
    <path d="M120.153,98.5 C124.998,96.457 143.35,93.397 146.423,93.397 C148.463,93.397 150.76,94.93 150.76,98.5 C150.76,101.05 151.523,104.11 150.503,107.17 C150.213,108.042 148.605,110.392 147.698,110.743 C140.915,113.357 130.865,115.842 124.23,115.842 C122.958,115.332 120.915,99.52 120.153,98.5 z M96.688,101.05 C98.983,96.712 114.54,90.337 119.895,99.52 M134.69,65.087 C137.24,62.792 143.615,63.557 144.383,68.657" fill-opacity="0" stroke="#1A1919" stroke-width="5" stroke-linecap="round" stroke-linejoin="round"/>
    <path d="M43.682,200.625 C43.682,196.042 45.765,187.708 48.265,187.292 C50.765,186.875 113.265,203.125 118.683,213.125 C119.933,215.625 121.183,220.208 121.183,222.292 C119.515,221.46 118.685,216.46 114.515,217.71 C110.35,218.96 100.35,234.375 100.35,234.375 C97.015,231.46 77.015,209.792 43.682,200.625" fill="#FFFFFE"/>
    <path d="M43.682,200.625 C43.682,196.042 45.765,187.708 48.265,187.292 C50.765,186.875 113.265,203.125 118.683,213.125 C119.933,215.625 121.183,220.208 121.183,222.292 C119.515,221.46 118.685,216.46 114.515,217.71 C110.35,218.96 100.35,234.375 100.35,234.375 C97.015,231.46 77.015,209.792 43.682,200.625 z" fill-opacity="0" stroke="#1A1919" stroke-width="5" stroke-linecap="round" stroke-linejoin="round"/>
    <path d="M217.85,224.792 L222.433,222.292 C229.933,218.957 229.1,213.957 227.433,210.625 C226.183,210.21 211.648,210.275 209.515,211.875 C204.515,215.625 200.833,217.41 194.1,225.207 C186.183,234.375 192.015,242.707 192.433,249.792 C183.265,255.21 146.6,272.292 142.85,276.042 C140.35,274.167 110.35,254.167 110.35,254.167 L103.475,248.542 L78.475,282.292 C87.85,294.167 120.35,314.792 139.1,315.417 C157.85,316.042 184.1,300.207 214.1,268.957 C214.1,268.957 239.933,267.29 242.85,265.207 C245.765,264.792 254.515,262.29 253.265,257.707 C254.933,255.625 255.35,251.457 254.1,247.707 C257.015,244.792 254.515,236.457 252.85,233.542 C254.515,230.625 252.433,225.625 252.433,225.625 C252.433,225.625 247.015,215.21 244.933,213.125 C242.85,211.042 239.515,205.21 236.6,206.875 C233.683,208.542 230.765,214.79 236.6,223.957 L235.765,230.207 C235.765,230.207 222.85,229.375 221.183,229.375 C219.515,229.375 217.85,224.792 217.85,224.792" fill="#F7CEB2"/>
    <path d="M217.85,224.792 L222.433,222.292 C229.933,218.957 229.1,213.957 227.433,210.625 C226.183,210.21 211.648,210.275 209.515,211.875 C204.515,215.625 200.833,217.41 194.1,225.207 C186.183,234.375 192.015,242.707 192.433,249.792 C183.265,255.21 146.6,272.292 142.85,276.042 C140.35,274.167 110.35,254.167 110.35,254.167 L103.475,248.542 L78.475,282.292 C87.85,294.167 120.35,314.792 139.1,315.417 C157.85,316.042 184.1,300.207 214.1,268.957 C214.1,268.957 239.933,267.29 242.85,265.207 C245.765,264.792 254.515,262.29 253.265,257.707 C254.933,255.625 255.35,251.457 254.1,247.707 C257.015,244.792 254.515,236.457 252.85,233.542 C254.515,230.625 252.433,225.625 252.433,225.625 C252.433,225.625 247.015,215.21 244.933,213.125 C242.85,211.042 239.515,205.21 236.6,206.875 C233.683,208.542 230.765,214.79 236.6,223.957 L235.765,230.207 C235.765,230.207 222.85,229.375 221.183,229.375 C219.515,229.375 217.85,224.792 217.85,224.792 z M252.85,233.542 C252.015,235.625 243.68,243.125 239.515,243.957 M235.765,230.207 C238.265,228.542 242.015,226.042 242.015,226.042 M254.1,247.707 C252.85,248.957 244.1,252.292 242.85,252.292 M242.85,258.125 C244.1,258.542 252.433,258.957 252.433,258.957 M140.765,239.792 C144.515,244.375 148.68,254.792 152.85,268.96" fill-opacity="0" stroke="#1A1919" stroke-width="5" stroke-linecap="round" stroke-linejoin="round"/>
    <path d="M121.83,223.312 C122.25,225.832 130.33,250.087 129.562,266.91 C130.805,265.667 141.995,266.91 141.995,266.91 C141.995,266.91 133.69,237.155 132.67,233.965 C128.77,221.735 122.775,217.632 122.775,217.632 L121.83,223.312" fill="#FFFFFE"/>
    <path d="M121.83,223.312 C122.25,225.833 130.33,250.088 129.562,266.91 C130.805,265.668 141.995,266.91 141.995,266.91 C141.995,266.91 133.69,237.155 132.67,233.965 C128.77,221.735 122.775,217.633 122.775,217.633 L121.83,223.312 z M79.933,415.625 C77.433,419.793 65.765,433.125 56.6,438.957 M127.433,437.293 C124.933,438.125 119.1,443.125 117.433,445.625 C112.433,461.46 98.875,546.32 97.433,561.46 C95.765,578.96 96.6,639.792 95.765,669.792" fill-opacity="0" stroke="#1A1919" stroke-width="5" stroke-linecap="round" stroke-linejoin="round"/>
    <path d="M323.265,340.207 C323.78,341.423 325.765,346.04 325.765,348.125 C325.765,350.207 245.35,362.29 245.35,362.29 C240.35,351.04 180.765,319.375 177.85,318.125 C182.225,313.543 223.475,302.918 223.475,302.918 C223.475,302.918 311.81,313.125 323.265,340.207" fill="#FFFFFE"/>
    <path d="M323.265,340.207 C323.78,341.423 325.765,346.04 325.765,348.125 C325.765,350.207 245.35,362.29 245.35,362.29 C240.35,351.04 180.765,319.375 177.85,318.125 C182.225,313.543 223.475,302.918 223.475,302.918 C223.475,302.918 311.81,313.125 323.265,340.207 z" fill-opacity="0" stroke="#1A1919" stroke-width="5" stroke-linecap="round" stroke-linejoin="round"/>
    <path d="M178.682,316.458 C187.015,310.625 246.182,297.29 256.182,296.875 C265.765,296.458 300.765,306.458 332.432,338.125 C327.015,338.958 252.85,351.04 251.182,352.29 C249.1,346.04 236.182,327.708 178.682,316.458" fill="#FFFFFE"/>
    <path d="M178.682,316.457 C187.015,310.625 246.182,297.29 256.182,296.875 C265.765,296.457 300.765,306.457 332.432,338.125 C327.015,338.957 252.85,351.04 251.182,352.29 C249.1,346.04 236.182,327.707 178.682,316.457 z M34.835,145.257 C34.835,148.15 36.282,151.765 37.727,153.932" fill-opacity="0" stroke="#1A1919" stroke-width="5" stroke-linecap="round" stroke-linejoin="round"/>
    <path d="M220.975,224.793 C220.975,224.793 217.41,239.838 217.41,240.603 C217.41,241.368 220.72,247.228 225.818,247.228 C230.91,247.228 233.46,243.408 234.48,242.133 C235.498,240.858 235.35,226.043 235.35,226.043" fill="#FFFFFE"/>
    <path d="M220.975,224.793 C220.975,224.793 217.41,239.838 217.41,240.603 C217.41,241.368 220.72,247.228 225.818,247.228 C230.91,247.228 233.46,243.408 234.48,242.133 C235.498,240.858 235.35,226.043 235.35,226.043 M217.41,240.603 C218.938,238.82 225.56,229.393 234.223,241.113" fill-opacity="0" stroke="#1A1919" stroke-width="5" stroke-linecap="round" stroke-linejoin="round"/>
    <path d="M244.515,285.21 C246.183,281.875 246.6,276.875 249.1,274.792 C251.6,272.71 256.6,273.127 257.85,277.71 C259.1,282.292 259.1,284.375 259.1,284.375 C262.85,281.46 267.015,278.96 269.515,278.96 C272.015,278.96 272.85,284.792 272.85,284.792 C274.932,282.707 277.85,281.46 279.515,282.71 C281.182,283.96 282.015,285.625 281.6,288.542 C287.85,287.71 287.435,287.71 288.265,289.375 C289.1,291.042 288.265,293.96 288.265,295.21 C288.265,296.46 296.6,298.542 293.265,305.625" fill="#F7CEB2"/>
    <path d="M244.515,285.21 C246.183,281.875 246.6,276.875 249.1,274.792 C251.6,272.71 256.6,273.127 257.85,277.71 C259.1,282.292 259.1,284.375 259.1,284.375 C262.85,281.46 267.015,278.96 269.515,278.96 C272.015,278.96 272.85,284.792 272.85,284.792 C274.932,282.707 277.85,281.46 279.515,282.71 C281.182,283.96 282.015,285.625 281.6,288.542 C287.85,287.71 287.435,287.71 288.265,289.375 C289.1,291.042 288.265,293.96 288.265,295.21 C288.265,296.46 296.6,298.542 293.265,305.625" fill-opacity="0" stroke="#1A1919" stroke-width="5" stroke-linecap="round" stroke-linejoin="round"/>
    <path d="M257.85,285.625 C256.6,286.46 249.932,290.21 252.432,293.125 C254.932,296.042 261.182,294.792 266.182,292.71 C266.182,293.96 260.35,296.875 263.682,299.375 C266.51,301.497 272.015,299.375 275.35,298.125 C272.432,302.292 269.932,306.042 273.682,306.042 C277.432,306.042 284.1,303.96 284.1,303.96 C286.835,302.592 289.767,300.83 289.767,300.83 C289.767,300.83 284.49,296.137 283.61,295.257 C282.73,294.377 275.985,288.805 275.985,288.805 L264.247,285.285 L257.85,285.625" fill="#F7CEB2"/>
    <path d="M260.435,283.525 C259.185,284.358 249.932,290.21 252.432,293.125 C254.932,296.043 261.182,294.793 266.182,292.71 C266.182,293.96 260.35,296.875 263.682,299.375 C266.51,301.497 272.015,299.375 275.35,298.125 C272.432,302.293 269.932,306.043 273.682,306.043 C277.432,306.043 284.1,303.96 284.1,303.96" fill-opacity="0" stroke="#1A1919" stroke-width="5" stroke-linecap="round" stroke-linejoin="round"/>
    <path d="M37.85,217.293 C43.265,210.25 60.975,199.168 80.35,216.043 C99.725,232.918 115.35,247.918 115.35,247.918 C110.975,251.043 85.975,274.168 77.225,289.793 C74.1,289.793 49.383,269.35 39.725,254.168 C30.975,240.418 31.6,225.418 37.85,217.293" fill="#D8232A"/>
    <path d="M37.85,217.293 C43.265,210.25 60.975,199.168 80.35,216.043 C99.725,232.918 115.35,247.918 115.35,247.918 C110.975,251.043 85.975,274.168 77.225,289.793 C74.1,289.793 49.383,269.35 39.725,254.168 C30.975,240.418 31.6,225.418 37.85,217.293 z" fill-opacity="0" stroke="#1A1919" stroke-width="5" stroke-linecap="round" stroke-linejoin="round"/>
    <path d="M60.722,105.64 C58.938,106.15 55.365,108.448 55.623,112.527 C55.878,116.607 58.683,122.985 58.683,122.985 C58.683,122.985 60.978,125.79 63.783,125.535 C66.59,125.28 88.78,120.177 91.33,118.902 C93.88,117.63 96.94,112.018 96.94,110.997 C96.94,109.978 96.688,108.445 96.43,105.385 C96.175,102.325 94.9,98.755 89.543,99.52 C84.188,100.285 60.722,105.64 60.722,105.64" fill="#FFFFFE"/>
    <path d="M60.722,105.64 C58.937,106.15 55.365,108.447 55.622,112.527 C55.877,116.607 58.682,122.985 58.682,122.985 C58.682,122.985 60.977,125.79 63.782,125.535 C66.59,125.28 88.78,120.177 91.33,118.902 C93.88,117.63 96.94,112.017 96.94,110.997 C96.94,109.977 96.688,108.445 96.43,105.385 C96.175,102.325 94.9,98.755 89.542,99.52 C84.188,100.285 60.722,105.64 60.722,105.64 z M65.765,687.292 C69.932,691.46 92.43,703.125 100.765,707.292 M89.932,700.628 C93.265,698.96 105.765,693.125 110.765,692.292 M80.765,694.792 C80.765,694.792 98.265,688.125 101.6,687.292 M132.432,686.46 C134.932,683.96 143.265,677.292 146.6,677.292" fill-opacity="0" stroke="#1A1919" stroke-width="5" stroke-linecap="round" stroke-linejoin="round"/>
    <path d="M348.265,508.96 C349.933,505.627 388.265,484.792 400.765,484.792 L457.433,513.96 C446.6,517.292 409.933,537.292 406.6,543.96 L348.265,508.96" fill="#FFFFFE"/>
    <path d="M348.265,508.96 C349.933,505.627 388.265,484.792 400.765,484.792 L457.433,513.96 C446.6,517.292 409.933,537.292 406.6,543.96 L348.265,508.96 z" fill-opacity="0" stroke="#1A1919" stroke-width="5" stroke-linecap="round" stroke-linejoin="round"/>
    <path d="M279.932,533.96 C279.932,533.96 327.43,553.958 330.765,557.292 C334.1,560.628 354.1,568.96 354.1,568.96 L406.6,543.96 C403.265,536.46 351.598,509.793 348.265,508.96 C338.265,508.128 288.265,519.792 279.932,533.96" fill="#FFFFFE"/>
    <path d="M279.932,533.96 C279.932,533.96 327.43,553.958 330.765,557.292 C334.1,560.628 354.1,568.96 354.1,568.96 L406.6,543.96 C403.265,536.46 351.598,509.793 348.265,508.96 C338.265,508.128 288.265,519.792 279.932,533.96 z M117.432,681.46 C120.765,678.96 130.765,671.458 134.1,672.292" fill-opacity="0" stroke="#1A1919" stroke-width="5" stroke-linecap="round" stroke-linejoin="round"/>
    <path d="M413.475,361.667 C419.725,354.792 439.725,339.167 442.225,338.542 L454.1,339.167 C454.1,339.167 450.35,350.417 453.475,357.292 C454.725,354.792 466.6,350.417 466.6,350.417 C463.475,356.042 471.6,389.167 475.975,397.917 C476.6,403.542 468.475,414.167 466.6,414.167 C470.35,416.042 477.225,411.042 484.1,406.667 C486.6,403.542 495.35,399.167 499.725,406.042 C504.1,412.917 482.225,446.667 472.85,435.417 L472.225,432.917 L469.1,441.667 C471.6,442.917 470.35,447.292 484.725,449.792 L485.975,455.417 L486.6,461.667 C479.1,466.667 462.225,469.792 454.1,467.292 L453.475,459.792 C369.725,446.042 389.1,384.792 400.35,372.292 L398.475,364.167 C398.475,364.167 405.975,366.042 405.975,368.542" fill="#F7CEB2"/>
    <path d="M413.475,361.667 C419.725,354.792 439.725,339.167 442.225,338.542 L454.1,339.167 C454.1,339.167 450.35,350.417 453.475,357.292 C454.725,354.792 466.6,350.417 466.6,350.417 C463.475,356.042 471.6,389.167 475.975,397.917 C476.6,403.542 468.475,414.167 466.6,414.167 C470.35,416.042 477.225,411.042 484.1,406.667 C486.6,403.542 495.35,399.167 499.725,406.042 C504.1,412.917 482.225,446.667 472.85,435.417 L472.225,432.917 L469.1,441.667 C471.6,442.917 470.35,447.292 484.725,449.792 L485.975,455.417 L486.6,461.667 C479.1,466.667 462.225,469.792 454.1,467.292 L453.475,459.792 C369.725,446.042 389.1,384.792 400.35,372.292 L398.475,364.167 C398.475,364.167 405.975,366.042 405.975,368.542 M491.6,409.792 C491.6,409.792 484.1,426.667 478.475,427.292 M454.1,339.167 C460.975,323.542 478.475,322.292 484.1,324.167 M489.1,359.167 C482.85,366.667 480.35,376.667 484.725,394.167" fill-opacity="0" stroke="#1A1919" stroke-width="5" stroke-linecap="round" stroke-linejoin="round"/>
    <path d="M428.008,370.453 C425.043,374.045 421.663,376.155 420.467,375.165 C419.267,374.178 420.703,370.463 423.67,366.87 C426.638,363.278 430.017,361.168 431.212,362.158 C432.41,363.145 430.975,366.863 428.008,370.453" fill="#1A1919"/>
    <path d="M402.225,404.167 C401.78,401.957 412.85,404.167 412.85,406.667 C412.85,409.167 410.35,412.917 407.225,414.792 C404.1,416.667 402.85,407.292 402.225,404.167" fill="#EB9174"/>
    <path d="M402.225,404.167 C401.78,401.957 412.85,404.167 412.85,406.667 C412.85,409.167 410.35,412.917 407.225,414.792 C404.1,416.667 402.85,407.292 402.225,404.167 z" fill-opacity="0" stroke="#1A1919" stroke-width="5" stroke-linecap="round" stroke-linejoin="round"/>
    <path d="M359.1,557.292 C357.85,554.792 347.225,550.417 347.225,550.417 C347.225,550.417 330.975,541.667 328.475,544.792 C325.975,547.917 329.725,553.542 337.85,557.292 C334.1,557.292 322.225,559.792 320.975,557.917 C319.725,556.042 315.35,556.667 315.35,556.667 C315.35,556.667 310.975,563.542 320.975,568.542 C319.1,571.042 319.725,575.417 322.85,577.917 C320.35,581.042 327.225,584.792 327.225,584.792 C327.225,584.792 335.35,594.792 359.1,586.042 L359.1,557.292" fill="#F7CEB2"/>
    <path d="M359.1,557.292 C357.85,554.792 347.225,550.417 347.225,550.417 C347.225,550.417 330.975,541.667 328.475,544.792 C325.975,547.917 329.725,553.542 337.85,557.292 C334.1,557.292 322.225,559.792 320.975,557.917 C319.725,556.042 315.35,556.667 315.35,556.667 C315.35,556.667 310.975,563.542 320.975,568.542 C319.1,571.042 319.725,575.417 322.85,577.917 C320.35,581.042 327.225,584.792 327.225,584.792 C327.225,584.792 335.35,594.792 359.1,586.042 L359.1,557.292 z M320.975,568.542 C323.475,569.792 329.1,569.792 329.1,569.792 M324.725,577.917 L331.6,578.542 M330.35,586.667 L332.85,586.042" fill-opacity="0" stroke="#1A1919" stroke-width="5" stroke-linecap="round" stroke-linejoin="round"/>
    <path d="M502.225,482.292 C501.468,485.325 519.725,484.792 527.85,524.167 C535.975,563.542 526.6,561.667 523.475,564.792 C520.35,567.917 510.975,569.167 510.975,569.167 C510.975,569.167 502.85,479.792 502.225,482.292" fill="#FFE13C"/>
    <path d="M502.225,482.292 C501.468,485.325 519.725,484.792 527.85,524.167 C535.975,563.542 526.6,561.667 523.475,564.792 C520.35,567.917 510.975,569.167 510.975,569.167 C510.975,569.167 502.85,479.792 502.225,482.292 z" fill-opacity="0" stroke="#1A1919" stroke-width="5" stroke-linecap="round" stroke-linejoin="round"/>
    <path d="M443.475,476.667 C441.6,478.542 428.475,498.542 422.225,527.917 C415.975,557.292 415.975,596.042 417.85,609.167 C423.475,614.792 437.092,623.462 462.225,621.667 C470.975,621.042 508.475,611.042 513.475,604.167 C520.35,589.792 518.475,516.042 511.6,492.917 C504.388,468.655 494.128,468.367 490.975,467.917 C482.225,466.667 454.725,465.417 443.475,476.667" fill="#FFE13C"/>
    <path d="M443.475,476.667 C441.6,478.542 428.475,498.542 422.225,527.917 C415.975,557.292 415.975,596.042 417.85,609.167 C423.475,614.792 437.092,623.462 462.225,621.667 C470.975,621.042 508.475,611.042 513.475,604.167 C520.35,589.792 518.475,516.042 511.6,492.917 C504.388,468.655 494.128,468.367 490.975,467.917 C482.225,466.667 454.725,465.417 443.475,476.667 z" fill-opacity="0" stroke="#1A1919" stroke-width="5" stroke-linecap="round" stroke-linejoin="round"/>
    <path d="M362.225,584.792 C390.975,585.417 418.475,582.292 427.225,572.917 C447.85,547.917 461.6,497.292 445.975,489.792 C430.35,482.292 407.85,518.542 399.725,538.542 C396.6,537.917 391.6,537.917 393.475,546.667 L357.85,554.792 C357.225,560.417 358.475,573.995 358.475,584.167 C358.475,586.042 362.225,584.792 362.225,584.792" fill="#FFE13C"/>
    <path d="M362.225,584.792 C390.975,585.417 418.475,582.292 427.225,572.917 C447.85,547.917 461.6,497.292 445.975,489.792 C430.35,482.292 407.85,518.542 399.725,538.542 C396.6,537.917 391.6,537.917 393.475,546.667 L357.85,554.792 C357.225,560.417 358.475,573.995 358.475,584.167 C358.475,586.042 362.225,584.792 362.225,584.792 z" fill-opacity="0" stroke="#1A1919" stroke-width="5" stroke-linecap="round" stroke-linejoin="round"/>
    <path d="M564.1,533.542 L553.265,529.792 C553.265,529.792 467.318,560.295 461.565,563.767 C458.255,565.765 455.238,567.242 454.088,573.61 C452.938,579.975 450.06,627.45 451.785,629.765 L456.96,631.502 C456.96,631.502 556.463,593.872 562.21,590.397 C563.938,563.77 570.765,535.21 564.1,533.542" fill="#AC8E5B"/>
    <g>
      <path d="M564.1,533.542 L553.265,529.792 C553.265,529.792 467.318,560.295 461.565,563.767 C458.255,565.765 455.238,567.242 454.088,573.61 C452.938,579.975 450.06,627.45 451.785,629.765 L456.96,631.502 C456.96,631.502 556.463,593.872 562.21,590.397 C563.938,563.77 570.765,535.21 564.1,533.542 z" fill-opacity="0" stroke="#1A1919" stroke-width="5.148" stroke-linecap="round" stroke-linejoin="round"/>
      <path d="M551.023,761.788 C551.023,761.788 553.475,639.168 553.475,637.293 C553.475,635.418 559.787,575.21 561.037,560.21 C562.287,545.21 556.662,542.085 551.037,544.585 C551.037,544.585 478.747,571.853 476.663,572.71 C466.038,577.085 467.288,585.835 466.663,597.71 C466.038,609.585 463.475,679.168 463.475,679.168 L461.125,799.233" fill-opacity="0" stroke="#1A1919" stroke-width="17.5" stroke-linecap="round" stroke-linejoin="round"/>
      <path d="M551.023,761.788 C551.023,761.788 553.475,639.168 553.475,637.293 C553.475,635.418 559.787,575.21 561.037,560.21 C562.287,545.21 556.662,542.085 551.037,544.585 C551.037,544.585 478.747,571.853 476.663,572.71 C466.038,577.085 467.288,585.835 466.663,597.71 C466.038,609.585 463.475,679.168 463.475,679.168 L461.125,799.233" fill-opacity="0" stroke="#CBCCCB" stroke-width="8" stroke-linecap="round" stroke-linejoin="round"/>
      <path d="M538.633,668.055 C543.17,669.1 547.263,669.418 547.557,666.46 C547.557,666.46 550.513,605.885 551.633,602.523 C552.755,599.158 550.513,591.31 546.028,592.993 C546.028,592.993 482.253,615.79 480.013,616.353 C480.013,616.353 474.965,618.035 474.965,629.808 L473.935,683.53 C473.935,683.53 474.767,694.168 469.725,694.168 C465.457,694.168 377.022,660.368 377.022,660.368 C371.975,659.81 368.052,660.93 367.492,670.458 C366.93,679.988 363.475,768.543 363.475,768.543" fill-opacity="0" stroke="#1A1919" stroke-width="17.5" stroke-linecap="round" stroke-linejoin="round"/>
      <path d="M539.612,668.268 C543.747,669.125 547.285,669.205 547.557,666.46 C547.557,666.46 550.513,605.885 551.633,602.523 C552.755,599.158 550.513,591.31 546.028,592.993 C546.028,592.993 482.253,615.79 480.013,616.353 C480.013,616.353 474.965,618.035 474.965,629.808 L473.935,683.53 C473.935,683.53 474.767,694.168 469.725,694.168 C465.457,694.168 377.022,660.368 377.022,660.368 C371.975,659.81 368.052,660.93 367.492,670.458 C366.93,679.988 363.475,768.543 363.475,768.543" fill-opacity="0" stroke="#CBCCCB" stroke-width="8" stroke-linecap="round" stroke-linejoin="round"/>
    </g>
    <path d="M430.855,384.745 C430.352,388.508 424.535,390.838 417.865,389.95 C411.195,389.058 406.192,385.285 406.692,381.523 C407.195,377.758 413.01,375.43 419.685,376.32 C426.355,377.21 431.355,380.983 430.855,384.745" fill="#F2B8AA"/>
    <path d="M451.34,464.89 C454.295,463.205 490.13,460.252 490.13,460.252 C491.815,460.675 500.668,469.947 501.93,471.635 C499.403,472.057 450.495,475.01 442.488,480.067 C442.488,480.067 437.008,485.127 436.585,483.862 C436.165,482.597 425.625,463.625 451.34,464.89" fill="#FFE13C"/>
    <path d="M451.34,464.89 C454.295,463.205 490.13,460.252 490.13,460.252 C491.815,460.675 500.668,469.947 501.93,471.635 C499.403,472.057 450.495,475.01 442.488,480.067 C442.488,480.067 437.008,485.127 436.585,483.862 C436.165,482.597 425.625,463.625 451.34,464.89 z" fill-opacity="0" stroke="#1A1919" stroke-width="5" stroke-linecap="round" stroke-linejoin="round"/>
    <path d="M357.432,650.628 L362.015,659.795 C366.182,657.712 371.185,653.96 383.265,658.128 C395.35,662.295 459.932,684.795 459.932,684.795 L459.515,672.295 C459.515,672.295 380.26,645.92 377.432,645.212 C372.432,643.962 360.35,646.045 357.432,650.628" fill="#AC8E5B"/>
    <g>
      <path d="M357.432,650.628 L362.015,659.795 C366.182,657.712 371.185,653.96 383.265,658.128 C395.35,662.295 459.932,684.795 459.932,684.795 L459.515,672.295 C459.515,672.295 380.26,645.92 377.432,645.212 C372.432,643.962 360.35,646.045 357.432,650.628 z" fill-opacity="0" stroke="#1A1919" stroke-width="5.148" stroke-linecap="round" stroke-linejoin="round"/>
      <path d="M561.037,560.21 C562.287,545.21 556.662,542.085 551.037,544.585 C551.037,544.585 478.747,571.853 476.663,572.71 C466.038,577.085 467.288,585.835 466.663,597.71 C466.038,609.585 463.475,679.168 463.475,679.168 L461.125,799.233" fill-opacity="0" stroke="#1A1919" stroke-width="17.5" stroke-linejoin="round"/>
      <path d="M561.037,560.21 C562.287,545.21 556.662,542.085 551.037,544.585 C551.037,544.585 478.747,571.853 476.663,572.71 C466.038,577.085 467.288,585.835 466.663,597.71 C466.038,609.585 463.475,679.168 463.475,679.168 L461.125,799.233" fill-opacity="0" stroke="#CBCCCB" stroke-width="8" stroke-linecap="round" stroke-linejoin="round"/>
    </g>
    <path d="M541.307,664.378 L480.35,687.712 L480.348,676.46 L541.307,653.545 L541.307,664.378" fill="#AC8E5B"/>
    <path d="M541.307,664.378 L480.35,687.712 L480.348,676.46 L541.307,653.545 L541.307,664.378 z" fill-opacity="0" stroke="#1A1919" stroke-width="5.148" stroke-linecap="round" stroke-linejoin="round"/>
    <path d="M213.625,755.51 L211.232,770.48 C214.572,773.91 225.803,773.165 227.965,771.41 L226.913,755.602" fill="#C5AC83"/>
    <path d="M213.625,755.51 L211.232,770.48 C214.572,773.91 225.803,773.165 227.965,771.41 L226.913,755.602" fill-opacity="0" stroke="#1A1919" stroke-width="5" stroke-linecap="round" stroke-linejoin="round"/>
    <path d="M316.23,804.047 L314.71,818.268 C318.133,821.612 329.11,820.568 331.228,818.768 L329.52,803.823" fill="#C5AC83"/>
    <path d="M316.23,804.047 L314.71,818.268 C318.133,821.612 329.11,820.568 331.228,818.768 L329.52,803.823" fill-opacity="0" stroke="#1A1919" stroke-width="5" stroke-linecap="round" stroke-linejoin="round"/>
    <path d="M357.177,764.44 L355.96,778.893 C359.382,782.237 369.305,781.33 371.422,779.528 L370.467,764.215" fill="#C5AC83"/>
    <path d="M357.177,764.44 L355.96,778.893 C359.382,782.237 369.305,781.33 371.422,779.528 L370.467,764.215" fill-opacity="0" stroke="#1A1919" stroke-width="5" stroke-linecap="round" stroke-linejoin="round"/>
    <path d="M453.835,794.108 L452.835,808.268 C456.257,811.613 465.962,810.04 468.077,808.24 L467.122,793.885" fill="#C5AC83"/>
    <g>
      <path d="M453.835,794.108 L452.835,808.268 C456.257,811.613 465.962,810.04 468.077,808.24 L467.122,793.885" fill-opacity="0" stroke="#1A1919" stroke-width="5" stroke-linecap="round" stroke-linejoin="round"/>
      <path d="M544.842,756.728 L544.075,770.405 C547.495,773.753 556.33,772.833 558.45,771.03 L558.127,756.503" fill="#C5AC83"/>
      <path d="M544.842,756.728 L544.075,770.405 C547.495,773.753 556.33,772.833 558.45,771.03 L558.127,756.503" fill-opacity="0" stroke="#1A1919" stroke-width="5" stroke-linecap="round" stroke-linejoin="round"/>
    </g>
    <path d="M443.742,343.34 C449.202,339.095 455.872,343.34 454.052,348.193" fill-opacity="0" stroke="#F7CEB2" stroke-width="7.5" stroke-linecap="round" stroke-linejoin="round"/>
    <path d="M447.75,341.642 C451.915,341.167 455.435,344.505 454.052,348.192" fill-opacity="0" stroke="#1A1919" stroke-width="5" stroke-linecap="round" stroke-linejoin="round"/>
    <path d="M70.875,71.923 C68.323,69.372 59.142,68.097 55.825,73.452" fill-opacity="0" stroke="#46321D" stroke-width="5" stroke-linecap="round" stroke-linejoin="round"/>
    <path d="M68.375,69.423 C65.823,66.872 56.642,65.597 53.325,70.952" fill-opacity="0" stroke="#1A1919" stroke-width="5" stroke-linecap="round" stroke-linejoin="round"/>
  </g>
</svg>
